<?xml version="1.0" encoding="UTF-8" standalone="no"?>
<!-- Created with Inkscape (http://www.inkscape.org/) -->

<svg
   version="1.1"
   id="svg1"
   width="1024"
   height="1024"
   viewBox="0 0 1024 1024"
   xmlns="http://www.w3.org/2000/svg"
   xmlns:svg="http://www.w3.org/2000/svg">
  <defs
     id="defs1" />
  <g
     id="g1">
    <path
       style="fill:#112b00"
       d="m 491.1956,848.92618 c -4.95,-1.90304 -16.2,-6.20547 -25,-9.56096 -41.44435,-15.80298 -77.93332,-32.99761 -102.68251,-48.38691 -28.903,-17.97219 -56.25663,-41.7834 -76.513,-66.60422 -6.10236,-7.47743 -21.30449,-29.10937 -21.30449,-30.31532 0,-0.7124 23.93229,19.28905 38.38973,32.08428 26.07958,23.08115 46.45664,37.38613 76.26395,53.53836 33.14682,17.96188 65.04882,31.97664 104.10927,45.7359 l 17.26294,6.08097 15.23706,-5.42276 c 50.44594,-17.95336 78.22834,-29.95274 108.51467,-46.86811 30.29342,-16.91933 51.33799,-31.69596 70.24207,-49.32108 5.23583,-4.8816 14.68583,-13.3428 21,-18.80267 6.31417,-5.45986 13.61781,-11.96795 16.23031,-14.4624 2.6125,-2.49446 4.75,-4.1713 4.75,-3.72633 0,1.31874 -16.76728,25.48022 -23.32196,33.6067 -3.33117,4.12999 -11.93398,13.37208 -19.11736,20.53798 -34.93533,34.85033 -76.6937,60.17769 -142.63143,86.50906 -12.5224,5.00066 -50.83344,18.98764 -51.76752,18.89981 -0.36395,-0.0342 -4.71173,-1.61926 -9.66173,-3.5223 z m 8.32953,-75.11589 c -4.13565,-6.48978 -9.72665,-15.50447 -12.42445,-20.03265 l -4.90508,-8.23306 -0.6813,3.23306 c -0.37472,1.77818 -0.99488,8.6879 -1.37813,15.35493 -0.67138,11.67937 -0.61522,12.20348 1.53845,14.35715 1.9064,1.9064 2.03112,2.43941 0.84771,3.62283 -1.07907,1.07906 -3.04827,1.22199 -8.85715,0.64285 -6.55468,-0.65349 -7.46958,-0.98967 -7.46958,-2.7447 0,-1.10089 0.98831,-2.43378 2.19841,-2.96492 2.63188,-1.15517 2.92616,-2.73027 4.30371,-23.03508 0.55971,-8.25 1.28496,-17.32165 1.61165,-20.15922 0.52411,-4.55226 0.34648,-5.29169 -1.50989,-6.28518 -1.15713,-0.61928 -2.10388,-2.02906 -2.10388,-3.13285 0,-1.86014 0.56088,-1.98552 7.67066,-1.71481 l 7.67067,0.29206 9.20484,16.78467 9.20485,16.78466 0.48757,-12.28466 c 0.47554,-11.98166 0.42796,-12.34239 -1.92887,-14.62461 -3.78961,-3.66966 -2.52298,-4.62901 6.53654,-4.95076 6.92269,-0.24585 8.28503,-0.0307 8.83199,1.39461 0.61042,1.59075 -1.27351,3.76272 -4.07006,4.69235 -0.75752,0.25181 -1.26641,8.88607 -1.60819,27.28606 l -0.5,26.91768 -2.57555,0.29959 c -2.29817,0.26732 -3.38536,-0.9712 -10.09492,-11.5 z m 35.63176,5.82194 c -15.85961,-7.20409 -21.53922,-33.6702 -10.49686,-48.91374 6.7638,-9.33714 22.01081,-12.79879 30.78832,-6.99011 13.84328,9.16105 18.65653,35.10476 8.91514,48.05322 -6.51407,8.65865 -19.65288,12.19032 -29.2066,7.85063 z m 15.46442,-6.58311 c 3.19383,-1.6516 6.07429,-7.75698 6.07429,-12.875 0,-8.81521 -3.94324,-23.41034 -7.67659,-28.41342 -3.94252,-5.28337 -11.22891,-3.90133 -14.57186,2.76391 -4.47357,8.9195 0.27632,33.39007 7.45757,38.42001 2.78649,1.95173 5.091,1.97936 8.71659,0.1045 z M 424.6956,772.48949 c -5.63141,-2.63166 -8.5991,-5.37219 -11.34732,-10.47879 -1.77694,-3.30182 -2.14953,-5.65818 -2.13461,-13.5 0.0157,-8.25969 0.37995,-10.27785 2.78981,-15.45781 3.70949,-7.97346 7.06271,-12.18708 12.38428,-15.56192 5.97544,-3.78951 12.6228,-4.61204 19.98232,-2.47257 7.45042,2.16589 10.67338,4.52675 14.07166,10.30765 2.53286,4.3087 2.75386,5.52729 2.75386,15.18465 0,9.22083 -0.31688,11.1756 -2.60111,16.04563 -5.5237,11.77664 -12.76681,17.01725 -24.39889,17.65332 -5.58134,0.3052 -7.912,-0.0434 -11.5,-1.72016 z m 14.89158,-8.30292 c 5.04462,-4.58961 11.10842,-22.26445 11.10842,-32.37898 0,-6.72254 -2.11291,-9.32986 -8.10832,-10.00563 -4.16544,-0.46951 -4.74928,-0.24921 -7.26593,2.74166 -8.05788,9.57626 -14.11176,31.45341 -10.54701,38.1142 1.42285,2.65862 6.78446,4.96204 9.92126,4.2623 1.375,-0.30672 3.57621,-1.53682 4.89158,-2.73355 z m 149.30295,-10.52142 c -5.95502,-8.05995 -13.44663,-18.40155 -16.64804,-22.98133 -3.2014,-4.57979 -6.82265,-8.70782 -8.04722,-9.1734 -2.26805,-0.86231 -3.89869,-3.54443 -3.01964,-4.96677 0.51941,-0.84041 16.48064,-6.03295 18.54456,-6.03295 0.86462,0 1.05141,1.12577 0.62707,3.77943 -0.55657,3.48058 0.0262,4.72595 7.37062,15.75 4.60247,6.9084 7.97003,11.1248 7.96329,9.97057 -0.006,-1.1 -1.7375,-9.08472 -3.84682,-17.74382 l -3.83514,-15.74383 4.27646,-2.50617 c 2.35206,-1.3784 4.47238,-2.50618 4.71184,-2.50618 0.53254,0 18.72795,23.55079 20.42305,26.43408 1.91867,3.26357 1.51427,0.42717 -1.86037,-13.0482 -2.66268,-10.63244 -3.50736,-12.72636 -5.5,-13.63427 -3.9425,-1.79632 -2.85711,-4.329 3.27964,-7.65281 3.09861,-1.67827 6.07209,-2.78055 6.60773,-2.44951 0.54505,0.33686 0.69775,2.32878 0.34678,4.52363 -0.63132,3.94808 0.98332,11.01921 10.08101,44.1486 1.93652,7.05184 3.36562,12.95903 3.17579,13.12708 -0.18983,0.16806 -2.19682,1.23899 -4.45999,2.37985 l -4.11484,2.0743 -4.96408,-6.20138 c -2.73024,-3.41075 -7.76128,-9.91387 -11.18009,-14.45137 -3.41881,-4.5375 -6.34444,-8.25 -6.5014,-8.25 -0.2549,0 5.28248,26.50986 6.80193,32.56386 0.53315,2.12421 0.003,2.70674 -4.39929,4.83028 l -5.00555,2.41476 z m -203.69453,3.19909 c -11.08829,-5.62034 -11.70055,-6.11028 -10.48173,-8.38768 0.61952,-1.15759 2.09017,-1.96586 3.57688,-1.96586 2.57786,0 3.54196,-1.76918 20.91518,-38.38052 1.3286,-2.79983 1.48682,-4.02233 0.63131,-4.87784 -1.5714,-1.5714 -1.43998,-5.74164 0.18094,-5.74164 0.72742,0 5.49783,2.03214 10.6009,4.51586 7.0765,3.4442 9.13573,4.88746 8.67742,6.08178 -0.33049,0.86127 -0.6009,1.75413 -0.6009,1.98415 0,0.23001 -1.48806,0.41821 -3.30681,0.41821 -3.72419,0 -3.08498,-1.10517 -16.11899,27.86932 -6.15516,13.68288 -6.38927,14.48328 -4.90078,16.755 1.2573,1.91889 1.32039,2.67821 0.32243,3.88069 -1.60051,1.92848 -1.3221,1.99156 -9.49585,-2.15147 z m -37,-20.7501 c -4.80638,-2.43643 -16.38012,-14.44503 -15.7057,-16.29581 0.16187,-0.44419 2.36967,-3.39513 4.90622,-6.55763 6.21668,-7.75079 11.04221,-7.85671 7.83129,-0.17189 -2.97277,7.11483 -1.25147,12.96414 4.72439,16.05438 3.95866,2.0471 7.36797,1.03198 9.77108,-2.90933 2.63577,-4.32288 2.53252,-5.34742 -1.52728,-15.15485 -5.47257,-13.22033 -4.62613,-21.73833 2.80885,-28.26633 5.36236,-4.70822 11.13251,-5.29925 18.16154,-1.86027 5.06428,2.47772 13.52961,10.52297 13.52961,12.85821 0,0.56009 -1.80304,3.40645 -4.00675,6.32524 -5.23362,6.93189 -7.40525,6.52053 -6.43819,-1.21956 0.6271,-5.01914 0.48591,-5.51848 -2.36717,-8.37155 -4.59812,-4.59812 -9.10467,-4.01332 -11.18224,1.45108 -0.98654,2.59482 -0.67144,3.89848 2.65383,10.97965 4.89328,10.42021 5.62281,18.25491 2.33269,25.05138 -4.59997,9.50228 -15.7332,13.03425 -25.49217,8.08728 z m 308.81079,-0.23591 c -0.34454,-0.89785 -0.0796,-2.50811 0.5888,-3.57836 0.74133,-1.18705 0.86577,-2.4028 0.31912,-3.11753 -0.49286,-0.6444 -7.52109,-9.38414 -15.61829,-19.42164 -10.09289,-12.5114 -15.3418,-18.25 -16.69269,-18.25 -4.42219,0 -3.21856,-3.08778 3.71015,-9.51795 3.78516,-3.51282 7.39648,-6.40834 8.02513,-6.4345 1.53954,-0.064 2.47279,2.61795 1.83795,5.28191 -0.68511,2.87486 8.93897,15.62457 9.90124,13.11691 0.33979,-0.88547 0.6178,-6.47066 0.6178,-12.41153 0,-9.96057 -0.15572,-10.8423 -2,-11.32459 -1.1,-0.28766 -2,-1.19167 -2,-2.00892 0,-1.91517 11.85274,-12.92085 13.35809,-12.40345 0.64836,0.22284 1.00052,1.86408 0.81479,3.7973 -0.7424,7.72712 -1.25438,28.44396 -0.75237,30.44412 0.41569,1.65626 1.98759,2.54308 6.80996,3.84197 10.122,2.72634 24.97022,5.59142 29.05091,5.60559 5.4798,0.019 5.67745,2.11542 0.73026,7.74573 -5.23599,5.959 -6.44346,6.64186 -9.16707,5.18423 -1.20006,-0.64226 -6.71852,-2.39509 -12.26325,-3.89518 -5.54473,-1.50009 -11.09382,-3.04896 -12.33132,-3.44193 -4.00665,-1.27231 -2.9016,4.0934 2.14602,10.42029 3.37988,4.23649 5.15936,5.61486 7.74595,6 5.23462,0.77942 4.1811,3.17085 -4.3657,9.90992 -8.2365,6.49439 -9.48055,7.02428 -10.46548,4.45761 z M 534.42104,711.7607 c 1.44171,-9.01516 2.32972,-9.91431 10.02456,-10.15032 2.82064,-0.0865 3.25,0.22828 3.25,2.38276 0,3.51423 -7.82833,11.51756 -11.26571,11.51756 -2.45427,0 -2.57308,-0.22179 -2.00885,-3.75 z M 304.34803,697.87669 c -14.32596,-14.8505 -15.79331,-17.6167 -9.65243,-18.19638 2.68418,-0.25338 5.01912,-1.76848 10.01728,-6.5 3.5845,-3.39329 11.3312,-10.57987 17.21488,-15.97019 9.8764,-9.04823 10.65256,-10.02581 10.1108,-12.7346 -0.44979,-2.24897 -0.16598,-3.0955 1.21556,-3.62565 1.33156,-0.51097 2.73477,0.37431 5.37192,3.3891 1.96326,2.2444 7.24851,8.08361 11.74501,12.97604 l 8.17544,8.89531 -4.84497,5.45019 c -4.5374,5.10419 -4.95344,5.34457 -6.55338,3.78655 -1.41674,-1.37963 -1.52237,-2.19728 -0.61873,-4.78947 1.00415,-2.88051 0.80886,-3.43665 -2.48843,-7.08636 -1.96796,-2.17829 -4.10233,-3.96053 -4.74305,-3.96053 -0.64071,0 -3.74124,2.60347 -6.89006,5.78549 l -5.72512,5.78549 4.44417,4.36162 c 4.31235,4.23225 4.53774,4.32286 7.59878,3.05493 2.6512,-1.09816 3.29702,-1.08174 4.04695,0.10289 1.45697,2.30153 0.96532,3.17502 -4.669,8.29524 -4.61306,4.19214 -5.60052,4.6995 -6.95641,3.5742 -1.00762,-0.83625 -1.36872,-2.1541 -0.99654,-3.63697 0.4494,-1.79058 -0.38093,-3.37199 -3.60968,-6.87476 l -4.19334,-4.54924 -6.82604,6.77374 c -3.75432,3.72555 -6.82604,7.25272 -6.82604,7.83814 0,1.84766 9.58212,10.58954 11.58481,10.56896 1.05336,-0.0108 3.3244,-0.30144 5.04677,-0.64582 5.46766,-1.09324 5.27065,1.41319 -0.53036,6.74723 -2.8824,2.65037 -5.70324,4.81886 -6.26854,4.81886 -0.56531,0 -6.94642,-6.1353 -14.18025,-13.63401 z m 190.34757,1.99998 c 0,-1.11645 7.84745,-16.07996 12.10823,-23.08798 41.3682,-68.04119 112.46794,-114.42616 191.19299,-124.73296 6.49067,-0.84977 16.25161,-1.54503 21.69098,-1.54503 5.89718,0 10.15465,-0.42859 10.54588,-1.06162 0.36087,-0.58389 0.90086,-6.37351 1.19998,-12.86581 l 0.54385,-11.80419 -3.2676,-0.47959 c -6.10463,-0.89597 -32.45448,1.18184 -48.01431,3.78614 -42.61022,7.13184 -78.9052,20.9333 -112.49261,42.77623 -39.68122,25.80593 -71.63185,61.559 -97.54055,109.14884 -4.49143,8.25 -8.57147,15.42759 -9.06674,15.9502 -0.88224,0.93094 -14.31207,-1.85071 -17.02232,-3.52574 -0.91799,-0.56735 0.9036,-5.0852 6.85614,-17.0044 l 8.10628,-16.23178 -15.6701,-15.6269 c -22.33819,-22.27661 -41.65867,-36.17291 -67.6701,-48.67189 -23.1355,-11.11704 -49.24695,-18.88574 -73.47014,-21.8589 -12.54113,-1.5393 -25.02986,-2.0192 -25.02986,-0.96181 0,0.31283 1.11922,4.98409 2.48716,10.38058 2.5776,10.16856 7.84765,24.86628 11.44326,31.91425 1.13827,2.23119 2.06958,4.25668 2.06958,4.50109 0,0.44606 -10.61279,6.6353 -11.37766,6.6353 -0.94146,0 -9.68024,-21.40696 -12.93592,-31.68849 -7.13119,-22.52047 -9.66606,-40.58522 -9.67822,-68.97174 l -0.008,-19.16023 8.75,-0.73056 c 16.9294,-1.41349 50.43255,1.16478 71.52156,5.50402 41.11649,8.46004 74.7662,22.03857 106.22844,42.86591 12.33076,8.16271 31.98559,23.94313 39.9687,32.08997 3.28278,3.35012 6.20778,6.08954 6.5,6.08761 0.29221,-0.002 0.69026,-6.67879 0.88454,-14.83747 0.31709,-13.31572 0.14735,-15.2344 -1.65842,-18.74649 -3.49911,-6.80553 -6.6789,-8.82704 -20.19482,-12.83858 -17.19187,-5.10258 -24.59549,-9.23184 -35.09546,-19.57395 -7.25849,-7.14937 -9.37011,-10.00952 -13.28916,-18 -4.24844,-8.66204 -7.5539,-19.90151 -7.59802,-25.83532 -0.0172,-2.30811 0.0729,-2.32706 7.73264,-1.62662 19.41102,1.77503 31.97537,7.20519 43.84812,18.95065 8.99518,8.89873 13.40055,16.00299 20.067,32.36074 2.32637,5.70832 4.41053,10.55953 4.63146,10.78046 0.62674,0.62675 1.70448,-16.89391 1.69365,-27.53353 -0.008,-8.09683 -0.3881,-10.37769 -2.43093,-14.59638 -3.55303,-7.33744 -3.27907,-7.1144 -15.12196,-12.31143 -13.67913,-6.00283 -20.71679,-10.48321 -27.84686,-17.72812 -6.17233,-6.27173 -11.63018,-16.32393 -14.09525,-25.96045 -1.96901,-7.69732 -3.11415,-22.99945 -1.78275,-23.82231 0.54525,-0.33698 5.09514,0.48556 10.11088,1.82785 25.52125,6.82994 38.88823,20.40947 47.73543,48.49446 1.4727,4.675 2.96194,8.81153 3.30942,9.19228 0.34748,0.38075 0.78193,-6.46888 0.96543,-15.2214 l 0.33364,-15.91369 -3.97548,-4.77859 c -5.08859,-6.1166 -7.82668,-11.63083 -9.68128,-19.49712 -2.97773,-12.63007 -1.6268,-25.75283 3.83799,-37.28148 3.30964,-6.98211 12.51405,-19.12629 15.30934,-20.19894 3.37707,-1.29591 15.71525,14.66788 19.4759,25.19894 2.61864,7.33304 3.62844,23.51424 1.9665,31.51125 -1.60292,7.71298 -5.26846,15.13105 -10.02857,20.29516 l -4.07168,4.41725 v 17.83817 c 0,11.03203 0.35545,17.4757 0.93159,16.88817 0.51238,-0.5225 2.51743,-5.70366 4.45568,-11.51369 4.74535,-14.22453 6.83194,-18.89628 11.5293,-25.81345 4.41071,-6.49506 11.02277,-12.72519 17.58969,-16.57366 4.75686,-2.7877 20.28569,-8.2062 24.99374,-8.7211 l 3,-0.3281 -0.14133,8.5515 c -0.27227,16.47516 -6.18257,31.62996 -16.24264,41.64833 -6.35833,6.33197 -17.24821,13.10338 -29.40672,18.28533 -8.50865,3.62638 -10.16772,5.35426 -13.45667,14.01484 -1.72222,4.53501 -2.17341,8.48269 -2.57161,22.5 -0.26561,9.35 -0.16319,17.84715 0.22761,18.88256 0.52742,1.39742 1.95301,-1.17958 5.53196,-10 6.62275,-16.32193 12.76397,-26.49821 21.0594,-34.89632 11.09275,-11.23007 25.2876,-17.3868 43.99522,-19.08204 7.43564,-0.6738 7.50472,-0.65806 7.49777,1.70787 -0.0129,4.39199 -3.91931,18.77002 -6.82328,25.11382 -8.46716,18.49674 -26.32815,32.42186 -49.66971,38.72441 -11.78383,3.18181 -13.26193,3.92257 -17.04914,8.54437 l -3.45086,4.21131 v 17.1207 17.12069 l 4.25,-4.22369 c 21.11274,-20.98201 45.25743,-37.96633 74.25,-52.23035 31.78416,-15.63744 59.4334,-23.97214 96.5,-29.08933 12.98729,-1.79295 56.07705,-2.65333 57.5852,-1.14981 0.41608,0.4148 0.96221,7.89152 1.21362,16.61492 0.7507,26.04747 -2.54194,50.1166 -10.00426,73.13089 -4.03904,12.45667 -11.07055,29 -12.32604,29 -2.84842,0 -11.52077,-3.3913 -11.10306,-4.34182 7.84776,-17.85781 15.63454,-41.49465 15.63454,-47.45876 0,-1.28998 -1.67707,-1.41498 -11.75,-0.8758 -35.6017,1.90567 -75.58359,14.54903 -108.25,34.23161 -34.6213,20.86047 -67.77039,54.67501 -86.94931,88.69477 l -3.24161,5.75 h -10.40454 c -5.7225,0 -10.40454,-0.28531 -10.40454,-0.63403 z m -8.04862,-80.47892 2.01577,-2.61296 -14.23358,-13.91411 C 452.04098,580.98497 431.64649,566.62454 404.1956,553.4169 366.97187,535.50718 321.23779,524.5107 283.97546,524.5107 H 271.6956 v 8.36043 c 0,4.59823 0.28617,10.44823 0.63592,13 l 0.63593,4.63957 h 10.31286 c 30.77982,0 69.37087,9.90465 102.91529,26.41391 28.30015,13.92823 53.07664,31.75704 74.47105,53.58832 l 10.47105,10.68487 6.74675,-9.59355 c 3.71072,-5.27645 7.65385,-10.76938 8.76253,-12.2065 z m 215.94266,75.86295 c -0.0583,-0.6875 -0.0302,-2.43151 0.0623,-3.87557 0.12008,-1.87354 -4.03952,-8.97822 -14.5225,-24.80473 -11.90327,-17.97076 -15.09334,-22.14777 -16.81232,-22.01374 -6.2881,0.4903 -6.12711,-1.20213 0.87847,-9.23484 3.025,-3.46852 5.5,-6.62716 5.5,-7.0192 0,-0.39204 3.0375,0.57336 6.75,2.14535 14.42048,6.10606 47.61531,18.27725 50.36777,18.46781 5.62183,0.38921 5.52656,1.86183 -0.69598,10.758 -3.2034,4.57981 -6.29629,8.65602 -6.87308,9.05826 -1.55641,1.0854 -3.72239,-2.39405 -3.08191,-4.95082 0.62294,-2.48677 -1.41747,-4.17445 -7.69637,-6.36586 -3.45836,-1.20701 -3.90839,-1.13368 -6.18835,1.00823 -1.35233,1.27044 -3.69629,4.67352 -5.20881,7.56239 l -2.75003,5.2525 3.35186,5.22341 c 2.98326,4.64902 3.65419,5.16295 6.10116,4.67356 1.66427,-0.33286 3.18052,-0.0303 3.84195,0.7667 0.83423,1.00519 -0.15027,2.87308 -4.16278,7.898 -4.88235,6.11423 -8.61073,8.40752 -8.86139,5.45055 z m -1.61381,-35.15444 c 1.52913,-2.42047 3.46329,-4.96773 4.29812,-5.66059 1.30626,-1.08409 1.05805,-1.43077 -1.78023,-2.48657 -1.81397,-0.67477 -7.04843,-2.85261 -11.63213,-4.83966 -4.58371,-1.98705 -8.18371,-3.2744 -8,-2.86078 0.80812,1.81951 13.38421,20.2069 13.83401,20.22658 0.275,0.012 1.75111,-1.9585 3.28023,-4.37898 z m -430.28023,5.68291 c -0.825,-0.31 -2.7375,-1.43012 -4.25,-2.48915 -2.2862,-1.60077 -2.75,-2.66198 -2.75,-6.29231 0,-2.40175 0.45494,-5.56339 1.01097,-7.02587 l 1.01097,-2.65906 3.61211,3.17148 c 2.8078,2.46527 4.19706,3.03483 6.23903,2.55784 2.80068,-0.65422 32.39475,-20.11186 37.86399,-24.89499 2.49431,-2.1814 3.26293,-3.66105 3.26293,-6.28139 0,-7.79939 6.3976,-3.64503 12.65798,8.21961 3.15803,5.98507 2.72071,8.97822 -1.16913,8.00193 -2.04531,-0.51334 -5.99432,1.72095 -22.01044,12.45321 -10.73487,7.19334 -21.06959,13.72712 -22.96606,14.51952 -3.43329,1.43452 -9.65667,1.79222 -12.51235,0.71918 z m -29.62205,-15.89652 c -7.76354,-13.24748 -17.77237,-39.57577 -22.38427,-58.88195 -6.86041,-28.71884 -6.39201,-13.71985 -6.73756,-215.75 l -0.31258,-182.75 h 29.02823 c 15.96553,0 29.02336,0.3375 29.01741,0.75 -0.006,0.4125 -0.68096,2.95902 -1.5,5.65893 -0.81905,2.69991 -1.48918,6.63741 -1.48918,8.75 v 3.84107 h -18 -18 v 167.53941 c 0,113.15399 0.3501,170.6916 1.07851,177.25 2.12271,19.11242 6.60048,37.04106 14.3578,57.48764 l 4.32208,11.39204 -2.36868,7.06252 c -2.43973,7.27433 -4.6809,19.98821 -3.78034,21.44536 0.27977,0.45267 0.27608,0.82303 -0.008,0.82303 -0.28427,0 -1.73472,-2.07812 -3.22322,-4.61805 z m 518.67316,3.07815 c -0.11061,-4.4147 -3.26237,-14.19853 -6.01141,-18.66091 l -2.89593,-4.7008 3.38022,-8.01481 c 4.56337,-10.82018 10.85892,-30.7382 13.3508,-42.23967 5.22023,-24.09426 5.12521,-20.37953 5.12521,-200.37442 V 211.55211 l -20.25,-0.2707 -20.25,-0.27071 0.36326,-2.5 c 0.19979,-1.375 0.48927,-5.425 0.64329,-9 l 0.28005,-6.5 6.3567,-0.63312 c 8.57963,-0.85451 40.08308,-1.00248 46.6067,-0.2189 l 5.25,0.6306 -0.0103,174.11071 c -0.006,109.58811 -0.38782,178.55772 -1.02898,186.11071 -2.72735,32.12855 -11.85175,64.54312 -26.0379,92.5 -2.65132,5.225 -4.84358,8.58204 -4.87169,7.4601 z M 386.1956,355.39507 c -35.31328,-5.13073 -65.05171,-24.07563 -81.55336,-51.95367 -11.81453,-19.95957 -17.94284,-47.14604 -16.6062,-73.66858 2.15811,-42.82268 20.53912,-78.39169 51.15956,-98.99862 13.51892,-9.09796 32.74157,-16.65698 50.5,-19.85838 13.15993,-2.3724 40.02424,-2.37648 53.5,-0.008 12.0152,2.11167 30.57965,8.10718 40.37127,13.03816 l 7.12873,3.58986 v 24.51966 c 0,24.50255 -0.002,24.52026 -2.25,25.3923 -3.22366,1.25028 -5.65432,-0.65125 -9.75,-7.6275 -14.84925,-25.29301 -31.94389,-35.73945 -58.5,-35.74904 -8.44978,-0.003 -12.84159,0.5227 -18.94341,2.26774 -29.23584,8.36104 -47.52217,29.74478 -54.65802,63.91622 -4.03318,19.31369 -4.03649,49.6655 -0.007,68.04195 7.84734,35.79141 22.84508,54.38465 49.5161,61.3869 13.56307,3.56087 35.58645,1.86089 45.09275,-3.4807 3.71829,-2.0893 4.04585,-2.63301 4.6511,-7.72013 1.04581,-8.79007 0.90266,-55.82648 -0.19297,-63.40708 -1.60408,-11.09848 -6.2781,-15.47306 -19.14475,-17.91827 -6.52967,-1.24092 -7.21026,-2.18925 -6.63297,-9.24251 l 0.31917,-3.90468 42.5,-0.26293 c 47.57989,-0.29437 45,-0.6903 45,6.90602 0,3.34539 -0.50939,4.1113 -4.61138,6.93354 -3.07338,2.11454 -5.32466,4.71536 -6.75,7.79804 -2.04442,4.4216 -2.15163,6.26338 -2.4339,41.81424 l -0.29528,37.18891 -6.70472,4.89948 c -18.55174,13.55672 -37.0331,21.46321 -59.05409,25.26388 -12.05066,2.07986 -30.55998,2.45456 -41.65063,0.84319 z m 125.53095,-5.80966 c -1.85783,-4.48519 0.30121,-7.90379 6.46905,-10.24301 7.2529,-2.75075 11.17239,-7.32306 11.97866,-13.97378 0.35725,-2.94686 0.5082,-46.53292 0.33544,-96.85792 -0.36126,-105.23661 0.8049,-94.50536 -11.23763,-103.41123 -7.62728,-5.64064 -9.63536,-8.60795 -7.53664,-11.13676 1.02213,-1.23159 8.20727,-1.44839 47.33261,-1.42814 75.28183,0.0389 87.57664,1.25469 106.40035,10.52107 22.24055,10.94839 36.27604,34.26846 36.20985,60.1629 -0.0718,28.08614 -14.93027,47.49775 -44.26851,57.83392 -4.28222,1.50868 -7.65722,3.03476 -7.5,3.39129 0.43801,0.99324 21.03168,34.77396 31.13185,51.06695 16.07203,25.92644 25.82344,37.02204 36.65402,41.70661 10.09338,4.3657 10.48019,4.65299 10.80991,8.02838 0.17045,1.74493 -0.19973,4.12488 -0.82263,5.28878 -1.11798,2.08896 -1.48894,2.11207 -28.83497,1.79621 l -27.70243,-0.31998 -6.65976,-3.28057 c -4.21163,-2.07464 -8.24602,-5.06524 -10.97494,-8.13547 -2.44861,-2.75486 -14.6727,-23.07196 -28.25987,-46.96943 l -23.9447,-42.11453 h -9.8053 -9.80531 v 38.85212 c 0,38.61763 0.0136,38.87262 2.25,42.25 1.45824,2.20219 4.47237,4.47007 8.56546,6.44478 3.47351,1.6758 6.72911,3.7008 7.23469,4.5 1.61098,2.54662 1.08059,6.81276 -0.98441,7.91792 -1.24514,0.66638 -16.87767,1.03518 -43.87868,1.03518 H 512.93824 Z M 621.59934,226.88924 c 21.479,-4.76646 31.95236,-21.02834 30.83587,-47.87854 -0.85596,-20.58474 -8.41755,-32.49433 -24.43652,-38.48779 -7.497,-2.80498 -23.48259,-4.31637 -36.70839,-3.47066 l -10.90531,0.69733 0.65531,21.0418 c 0.36041,11.57299 0.6553,32.24007 0.6553,45.92686 v 24.88507 l 16.75,-0.6465 c 9.2125,-0.35557 19.63168,-1.28598 23.15374,-2.06757 z"
       id="path1" />
  </g>
</svg>
